<svg width="20" height="21" viewBox="0 0 20 21" fill="none" xmlns="http://www.w3.org/2000/svg">
<path d="M10 1.3335L2.5 4.66683V9.66683C2.5 14.2918 5.7 18.6168 10 19.6668C14.3 18.6168 17.5 14.2918 17.5 9.66683V4.66683L10 1.3335ZM10 5.2335C10.4167 5.2335 10.7917 5.59183 10.7917 6.02516V8.92516L15 11.5502V12.6085L10.7917 11.2918V14.1835L11.8417 14.9752V15.7668L10 15.2335L8.15833 15.7668V14.9752L9.20833 14.1835V11.2918L5 12.6085V11.5502L9.20833 8.92516V6.02516C9.20833 5.59183 9.58333 5.2335 10 5.2335Z" fill="#133365"/>
</svg>
